# xmcd CD database file
#
# Track frame offsets:
#	150
#	23475
#	50395
#	86927
#	115275
#	151652
#	176782
#	209255
#	241805
#	275255
#
# Disc length: 4067 seconds
#
# Revision: 0
# Processed by: cddbd v1.5.1PL0 Copyright (c) Steve Scherf et al.
# Submitted via: CDex 1.51
#
DISCID=7b0fe10a
DTITLE=HOD O'BRIEN - Ridin High
DYEAR=1900
DGENRE=Jazz
TTITLE0=Ridin' High
TTITLE1=Portrait Of Stephanie
TTITLE2=Joop's Lope
TTITLE3=Up In Quincy's Room
TTITLE4=There's No You
TTITLE5=You and The Night and The Music
TTITLE6=Nathalie
TTITLE7=Summer Night
TTITLE8=Willow Weep For Me
TTITLE9=Yardbird Suite
EXTD=
EXTT0=
EXTT1=
EXTT2=
EXTT3=
EXTT4=
EXTT5=
EXTT6=
EXTT7=
EXTT8=
EXTT9=
PLAYORDER=
